<svg width="24" height="24" viewBox="0 0 24 24" fill="none" xmlns="http://www.w3.org/2000/svg">
<path d="M16 10L17 10M11.5 10L12.5 10M7 10L8 10M20 5.2L20 18.8C20 19.9201 20 20.4802 19.782 20.908C19.5903 21.2843 19.2843 21.5903 18.908 21.782C18.4802 22 17.9201 22 16.8 22L15.5 22C15.5 20.067 13.933 18.5 12 18.5C10.067 18.5 8.5 20.067 8.5 22L7.2 22C6.07989 22 5.51984 22 5.09202 21.782C4.71569 21.5903 4.40973 21.2843 4.21799 20.908C4 20.4802 4 19.9201 4 18.8L4 5.2C4 4.07989 4 3.51984 4.21799 3.09202C4.40973 2.71569 4.71569 2.40973 5.09202 2.21799C5.51984 2 6.0799 2 7.2 2L8.5 2C8.5 3.933 10.067 5.5 12 5.5C13.933 5.5 15.5 3.933 15.5 2L16.8 2C17.9201 2 18.4802 2 18.908 2.21799C19.2843 2.40973 19.5903 2.71569 19.782 3.09202C20 3.51984 20 4.0799 20 5.2Z" stroke="#9933FF" stroke-width="2" stroke-linecap="round" stroke-linejoin="round"/>
</svg>
